<?xml version="1.0" standalone="no"?>
<!DOCTYPE svg PUBLIC "-//W3C//DTD SVG 20010904//EN"
 "http://www.w3.org/TR/2001/REC-SVG-20010904/DTD/svg10.dtd">
<svg version="1.0" xmlns="http://www.w3.org/2000/svg"
 width="500.000000pt" height="500.000000pt" viewBox="0 0 500.000000 500.000000"
 preserveAspectRatio="xMidYMid meet">

<g transform="translate(0.000000,500.000000) scale(0.100000,-0.100000)"
fill="#000000" stroke="none">
<path d="M2088 4103 c-7 -9 -22 -31 -34 -50 -38 -63 -137 -153 -228 -207 -50
-30 -176 -100 -281 -156 -239 -129 -309 -176 -388 -259 -111 -118 -153 -230
-145 -382 6 -112 37 -180 120 -263 77 -77 164 -128 333 -196 344 -140 425
-196 395 -274 -6 -16 -20 -42 -32 -58 -19 -27 -19 -31 -5 -45 14 -14 18 -14
44 5 61 43 193 192 225 254 28 54 33 73 33 138 0 69 -3 79 -34 123 -60 88
-191 169 -420 261 -176 71 -247 121 -293 209 -32 59 -32 184 -1 243 31 58 100
115 196 163 242 119 541 95 872 -72 225 -113 434 -288 555 -466 173 -255 237
-639 150 -889 -18 -51 -33 -71 -52 -72 -4 0 -32 22 -63 50 -79 71 -127 93
-205 94 -55 1 -76 -4 -130 -31 -79 -39 -174 -111 -272 -203 -69 -65 -72 -69
-56 -86 16 -17 21 -16 96 19 94 44 128 46 207 8 65 -31 155 -108 155 -133 0
-9 -22 -25 -52 -39 -48 -22 -67 -24 -188 -24 -151 1 -192 11 -345 87 -74 37
-118 66 -340 220 -106 73 -236 145 -310 170 -79 26 -133 20 -228 -25 -134 -63
-387 -244 -387 -277 0 -27 20 -29 65 -6 29 15 58 21 105 21 76 0 107 -15 381
-186 235 -147 367 -205 535 -234 255 -44 506 14 755 175 34 22 65 40 69 40 5
0 42 -33 83 -73 127 -123 223 -155 316 -108 55 29 200 172 274 271 89 120 100
151 56 165 -15 5 -36 -8 -82 -52 -92 -86 -143 -96 -236 -48 -45 23 -121 94
-121 112 0 8 13 32 28 52 84 107 158 263 199 420 34 131 43 365 19 495 -82
435 -337 753 -771 967 -171 83 -284 119 -522 162 -22 4 -35 1 -45 -10z"/>
<path d="M2625 2688 c-2 -7 -5 -39 -7 -71 -2 -40 1 -57 10 -57 8 0 12 21 12
70 0 66 -5 86 -15 58z"/>
<path d="M2670 2680 c0 -5 5 -10 10 -10 6 0 10 5 10 10 0 6 -4 10 -10 10 -5 0
-10 -4 -10 -10z"/>
<path d="M2290 2661 c-15 -29 -12 -67 6 -85 22 -23 23 -20 11 19 -7 25 -7 42
1 60 14 29 -2 34 -18 6z"/>
<path d="M2368 2634 c3 -29 0 -49 -9 -61 -13 -15 -12 -15 8 -4 37 19 43 91 9
104 -10 4 -12 -5 -8 -39z"/>
<path d="M2722 2618 c2 -28 8 -53 13 -55 6 -2 9 18 7 52 -2 30 -8 55 -13 55
-6 0 -9 -23 -7 -52z"/>
<path d="M2422 2608 c2 -23 8 -43 13 -45 6 -2 9 15 7 42 -2 25 -8 45 -14 45
-5 0 -8 -19 -6 -42z"/>
<path d="M2470 2605 c0 -33 4 -45 15 -45 11 0 15 12 15 45 0 33 -4 45 -15 45
-11 0 -15 -12 -15 -45z"/>
<path d="M2526 2641 c-4 -7 -5 -15 -2 -18 9 -9 19 4 14 18 -4 11 -6 11 -12 0z"/>
<path d="M2566 2608 c0 -23 6 -44 13 -46 9 -3 11 8 9 39 -4 56 -24 62 -22 7z"/>
<path d="M2670 2605 c0 -29 4 -45 13 -45 8 0 11 14 9 45 -2 25 -8 45 -13 45
-5 0 -9 -20 -9 -45z"/>
<path d="M2786 2613 c29 -70 47 -67 22 4 -7 18 -18 33 -24 33 -10 0 -9 -9 2
-37z"/>
<path d="M2520 2580 c0 -11 6 -20 14 -20 9 0 12 7 9 20 -3 11 -9 20 -14 20 -5
0 -9 -9 -9 -20z"/>
<path d="M3584 2399 c-121 -95 -223 -175 -228 -179 -4 -5 6 -29 24 -54 l32
-47 46 35 c26 20 71 52 100 73 l54 37 63 -11 c127 -22 230 -88 261 -169 54
-141 -36 -284 -418 -669 -131 -131 -238 -241 -238 -245 1 -3 16 -23 35 -45 32
-37 35 -38 52 -23 30 27 89 48 135 48 24 0 95 -9 158 -20 63 -12 166 -24 228
-27 l114 -6 105 104 c57 57 150 153 205 212 l101 108 -33 34 c-19 19 -38 35
-43 35 -6 0 -32 -21 -59 -46 -27 -25 -70 -55 -96 -66 -43 -19 -58 -20 -187
-14 -77 4 -155 9 -173 12 l-32 6 84 89 c110 115 207 238 278 350 116 185 141
320 81 447 -41 86 -152 158 -289 187 -132 28 -116 35 -360 -156z m423 120 c60
-19 138 -69 175 -113 71 -85 80 -223 23 -351 -49 -111 -207 -321 -369 -492
l-95 -100 107 -11 c59 -7 152 -12 207 -12 117 0 166 18 231 82 42 40 42 40 68
23 15 -10 25 -22 24 -26 -2 -5 -88 -97 -193 -205 l-189 -197 -106 6 c-58 4
-157 15 -220 27 -154 27 -215 26 -273 -3 l-46 -24 -23 24 -22 23 205 208 c197
198 301 315 383 430 147 204 77 393 -171 457 -101 26 -118 22 -218 -50 l-89
-65 -19 30 c-11 17 -18 32 -16 34 2 1 100 78 218 170 l215 168 65 -7 c36 -4
94 -16 128 -26z"/>
<path d="M2333 2538 c16 -10 55 -10 61 0 2 4 -13 7 -34 7 -22 0 -33 -3 -27 -7z"/>
<path d="M2770 2540 c0 -5 5 -10 10 -10 6 0 10 5 10 10 0 6 -4 10 -10 10 -5 0
-10 -4 -10 -10z"/>
<path d="M2860 2480 c0 -5 4 -10 9 -10 6 0 13 5 16 10 3 6 -1 10 -9 10 -9 0
-16 -4 -16 -10z"/>
<path d="M2181 2464 c0 -11 3 -14 6 -6 3 7 2 16 -1 19 -3 4 -6 -2 -5 -13z"/>
<path d="M2220 2470 c0 -5 5 -10 11 -10 5 0 7 5 4 10 -3 6 -8 10 -11 10 -2 0
-4 -4 -4 -10z"/>
<path d="M2265 2470 c3 -5 8 -10 11 -10 2 0 4 5 4 10 0 6 -5 10 -11 10 -5 0
-7 -4 -4 -10z"/>
<path d="M2370 2461 c-15 -29 -12 -67 6 -85 22 -23 23 -20 11 19 -7 25 -7 42
1 60 14 29 -2 34 -18 6z"/>
<path d="M2448 2434 c3 -29 0 -49 -9 -61 -13 -15 -12 -15 8 -4 37 19 43 91 9
104 -10 4 -12 -5 -8 -39z"/>
<path d="M2802 2418 c2 -28 8 -53 13 -55 6 -2 9 18 7 52 -2 30 -8 55 -13 55
-6 0 -9 -23 -7 -52z"/>
<path d="M2910 2431 c0 -47 8 -71 24 -71 7 0 10 18 8 55 -3 39 -8 55 -18 55
-10 0 -14 -12 -14 -39z"/>
<path d="M2263 2447 c-53 -19 -60 -37 -9 -20 25 9 46 19 46 24 0 5 -1 9 -2 8
-2 0 -17 -6 -35 -12z"/>
<path d="M2502 2408 c2 -23 8 -43 13 -45 6 -2 9 15 7 42 -2 25 -8 45 -14 45
-5 0 -8 -19 -6 -42z"/>
<path d="M2550 2405 c0 -33 4 -45 15 -45 11 0 15 12 15 45 0 33 -4 45 -15 45
-11 0 -15 -12 -15 -45z"/>
<path d="M2606 2441 c-4 -7 -5 -15 -2 -18 9 -9 19 4 14 18 -4 11 -6 11 -12 0z"/>
<path d="M2646 2408 c0 -23 6 -44 13 -46 9 -3 11 8 9 39 -4 56 -24 62 -22 7z"/>
<path d="M2695 2405 c0 -29 4 -45 13 -45 8 0 12 16 12 45 0 29 -4 45 -12 45
-9 0 -13 -16 -13 -45z"/>
<path d="M2750 2405 c0 -29 4 -45 13 -45 8 0 11 14 9 45 -2 25 -8 45 -13 45
-5 0 -9 -20 -9 -45z"/>
<path d="M2860 2405 c0 -29 4 -45 13 -45 8 0 11 14 9 45 -2 25 -8 45 -13 45
-5 0 -9 -20 -9 -45z"/>
<path d="M2982 2405 c13 -27 25 -40 29 -33 9 15 -21 78 -38 78 -9 0 -7 -13 9
-45z"/>
<path d="M2168 2424 c-13 -12 -9 -31 8 -48 20 -20 78 -21 94 -1 11 14 10 14
-14 6 -34 -14 -73 1 -78 29 -2 12 -6 18 -10 14z"/>
<path d="M2240 2399 c0 -5 5 -7 10 -4 6 3 10 8 10 11 0 2 -4 4 -10 4 -5 0 -10
-5 -10 -11z"/>
<path d="M2600 2380 c0 -11 6 -20 14 -20 9 0 12 7 9 20 -3 11 -9 20 -14 20 -5
0 -9 -9 -9 -20z"/>
<path d="M2413 2338 c16 -10 55 -10 61 0 2 4 -13 7 -34 7 -22 0 -33 -3 -27 -7z"/>
<path d="M2970 2339 c0 -5 5 -7 10 -4 6 3 10 8 10 11 0 2 -4 4 -10 4 -5 0 -10
-5 -10 -11z"/>
<path d="M2130 889 c-167 -13 -364 -18 -765 -20 l-540 -3 565 -6 c425 -5 619
-11 783 -25 l217 -18 25 23 25 24 -27 23 c-16 12 -35 22 -43 21 -8 0 -116 -9
-240 -19z"/>
<path d="M2603 891 c-28 -24 -29 -33 -3 -56 20 -18 28 -18 243 0 165 14 366
21 787 25 l565 6 -521 2 c-460 2 -801 14 -1004 36 -34 4 -50 1 -67 -13z"/>
<path d="M2483 894 c-20 -8 -15 -52 6 -63 26 -14 54 8 49 40 -3 24 -28 34 -55
23z"/>
</g>
</svg>
